<svg 
 xmlns="http://www.w3.org/2000/svg"
 xmlns:xlink="http://www.w3.org/1999/xlink"
 width="70px" height="56px">
<path fill-rule="evenodd"  fill="#00f" stroke="red"
 d="M64.276,-0.001 C63.279,0.179 62.366,0.192 61.710,0.468 C61.240,1.970 60.111,2.825 59.611,4.099 C59.611,4.724 59.611,5.349 59.611,5.974 C59.437,6.321 58.579,6.721 58.328,7.145 C57.480,8.573 57.446,10.567 56.112,11.480 C53.474,13.283 47.738,11.897 44.098,12.651 C37.291,14.061 31.083,17.430 28.001,22.609 C26.335,25.409 27.797,29.554 27.185,33.504 C26.215,39.757 25.114,45.915 21.003,48.967 C17.947,51.236 11.388,52.833 7.123,53.770 C4.616,54.321 1.150,53.960 0.008,55.879 C0.008,55.918 0.008,55.957 0.008,55.996 C9.179,55.268 20.262,54.289 25.552,49.436 C28.455,46.772 29.443,42.090 31.967,39.127 C34.167,39.601 36.734,39.635 38.849,39.127 C38.849,39.205 38.849,39.283 38.849,39.361 C40.422,43.368 37.336,44.611 42.348,45.921 C41.954,47.145 42.410,48.472 43.281,48.850 C45.093,49.757 54.871,48.300 57.978,48.264 C57.978,48.225 57.978,48.186 57.978,48.147 C55.981,44.475 48.220,49.402 45.847,46.038 C48.568,45.960 51.291,45.882 54.012,45.804 C54.012,45.765 54.012,45.726 54.012,45.687 C52.910,43.739 48.985,43.575 46.080,44.164 C45.592,39.365 47.255,36.106 47.597,31.863 C51.912,31.406 53.150,27.508 56.228,25.889 C56.661,27.152 58.438,29.289 57.278,30.926 C56.938,31.405 56.344,31.539 55.995,32.098 C55.995,32.215 55.995,32.332 55.995,32.449 C56.150,32.410 56.306,32.371 56.461,32.332 C56.306,32.723 56.150,33.113 55.995,33.504 C56.345,33.543 56.695,33.582 57.045,33.621 C57.006,33.816 56.967,34.011 56.928,34.206 C58.654,33.804 59.049,31.785 59.261,29.872 C59.300,29.872 59.338,29.872 59.377,29.872 C59.222,31.590 59.066,33.309 58.911,35.026 C59.222,34.909 59.533,34.792 59.844,34.675 C59.727,35.066 59.611,35.456 59.494,35.847 C59.533,35.847 59.572,35.847 59.611,35.847 C65.061,33.468 58.675,26.746 59.844,22.726 C60.361,20.948 62.800,20.564 63.460,18.860 C64.213,16.915 62.669,15.429 62.993,13.471 C63.343,11.987 63.693,10.503 64.043,9.019 C66.561,8.791 69.875,8.656 69.992,5.974 C69.914,5.778 69.836,5.583 69.758,5.388 C69.062,5.157 67.844,5.190 66.959,4.919 C65.659,4.521 64.938,3.633 63.226,3.513 C63.576,2.342 63.926,1.170 64.276,-0.001 ZM41.881,40.181 C42.566,41.125 42.820,41.989 42.465,43.461 C42.387,43.422 42.309,43.383 42.231,43.344 C42.115,42.290 41.998,41.235 41.881,40.181 Z"/>
</svg>